<?xml version="1.0" standalone="no"?>
<!DOCTYPE svg PUBLIC "-//W3C//DTD SVG 20010904//EN"
 "http://www.w3.org/TR/2001/REC-SVG-20010904/DTD/svg10.dtd">
<svg version="1.0" xmlns="http://www.w3.org/2000/svg"
 width="512.000000pt" height="512.000000pt" viewBox="0 0 512.000000 512.000000"
 preserveAspectRatio="xMidYMid meet">

<g transform="translate(0.000000,512.000000) scale(0.100000,-0.100000)">
<path d="M1790 4995 l0 -125 -382 -2 -383 -3 -3 -127 -3 -128 -124 0 -125 0 0
-130 0 -130 -130 0 -130 0 0 -255 0 -255 -130 0 -130 0 0 -385 0 -385 -125 0
-125 0 0 -510 0 -510 125 0 125 0 0 -385 0 -385 130 0 130 0 0 -255 0 -255
130 0 130 0 0 -130 0 -130 255 0 255 0 0 -130 0 -130 385 0 385 0 0 -125 0
-125 510 0 510 0 0 125 0 125 385 0 385 0 0 130 0 130 255 0 255 0 0 130 0
130 130 0 130 0 0 125 0 124 127 3 128 3 3 383 2 382 125 0 125 0 0 130 0 130
-255 0 -255 0 0 -130 0 -130 -130 0 -130 0 0 -125 0 -125 -765 0 -765 0 0 125
0 125 -255 0 -255 0 0 130 0 130 -130 0 -130 0 0 130 0 130 -130 0 -130 0 0
255 0 255 -125 0 -125 0 0 765 0 765 125 0 125 0 0 130 0 130 130 0 130 0 0
125 0 124 128 3 127 3 3 128 3 127 -261 0 -260 0 0 -125z"/>
</g>
</svg>
