<?xml version="1.0" standalone="no"?>
<!DOCTYPE svg PUBLIC "-//W3C//DTD SVG 20010904//EN"
 "http://www.w3.org/TR/2001/REC-SVG-20010904/DTD/svg10.dtd">
<svg version="1.0" xmlns="http://www.w3.org/2000/svg"
 width="512.000000pt" height="512.000000pt" viewBox="0 0 512.000000 512.000000"
 preserveAspectRatio="xMidYMid meet">

<g transform="translate(0.000000,512.000000) scale(0.100000,-0.100000)">
<path d="M2390 4865 l0 -255 -85 0 -85 0 0 -85 0 -85 -85 0 -85 0 0 -90 0 -90
510 0 510 0 0 90 0 90 -80 0 -80 0 0 85 0 85 -85 0 -85 0 0 255 0 255 -175 0
-175 0 0 -255z"/>
<path d="M687 4433 c-4 -3 -7 -120 -7 -260 l0 -253 85 0 85 0 0 -255 0 -255
90 0 90 0 0 85 0 85 85 0 85 0 0 85 0 84 83 3 82 3 3 83 3 82 84 0 85 0 0 85
0 85 85 0 85 0 0 90 0 90 -255 0 -255 0 0 85 0 85 -253 0 c-140 0 -257 -3
-260 -7z"/>
<path d="M3927 4433 c-4 -3 -7 -42 -7 -84 l0 -79 -252 -2 -253 -3 0 -85 0 -85
83 -3 82 -3 0 -84 0 -85 90 0 90 0 0 -85 0 -85 80 0 79 0 3 -82 3 -83 83 -3
82 -3 0 -84 0 -85 90 0 90 0 0 255 0 255 85 0 85 0 0 260 0 260 -253 0 c-140
0 -257 -3 -260 -7z"/>
<path d="M2220 4010 l0 -90 -170 0 -170 0 0 -80 0 -80 -172 -2 -173 -3 -3 -82
-3 -82 -82 -3 -82 -3 -3 -172 -2 -173 -80 0 -80 0 0 -170 0 -170 -90 0 -90 0
2 -342 3 -343 88 -3 87 -3 0 -169 0 -170 80 0 80 0 2 -167 3 -168 83 -3 82 -3
0 -84 0 -85 175 0 175 0 0 -85 0 -85 170 0 170 0 0 -85 0 -85 343 2 342 3 3
82 3 83 167 2 167 3 3 83 3 82 169 0 170 0 0 85 0 85 85 0 85 0 0 170 0 169
83 3 82 3 3 167 2 167 83 3 82 3 3 343 2 342 -85 0 -85 0 0 170 0 170 -85 0
-85 0 0 175 0 175 -85 0 -84 0 -3 83 -3 82 -167 3 -168 2 0 80 0 80 -170 0
-169 0 -3 88 -3 87 -342 3 -343 2 0 -90z"/>
<path d="M680 2985 l0 -85 -85 0 -85 0 0 -85 0 -85 -255 0 -255 0 0 -175 0
-175 255 0 255 0 0 -85 0 -85 85 0 85 0 0 -80 0 -80 90 0 90 0 0 510 0 510
-90 0 -90 0 0 -85z"/>
<path d="M4270 2560 l0 -510 85 0 85 0 0 80 0 80 85 0 85 0 0 85 0 85 255 0
255 0 0 175 0 175 -255 0 -255 0 0 85 0 85 -85 0 -85 0 0 85 0 85 -85 0 -85 0
0 -510z"/>
<path d="M857 1704 c-4 -4 -7 -119 -7 -255 l0 -248 -82 -3 -83 -3 -3 -257 -2
-258 260 0 260 0 0 85 0 85 255 0 255 0 0 90 0 90 -85 0 -84 0 -3 83 -3 82
-82 3 -83 3 0 79 0 80 -85 0 -85 0 0 90 0 90 -85 0 -84 0 -3 83 -3 82 -80 3
c-45 1 -84 0 -88 -4z"/>
<path d="M4097 1703 c-4 -3 -7 -41 -7 -84 l0 -78 -82 -3 -83 -3 -3 -87 -3 -88
-79 0 -80 0 0 -80 0 -79 -87 -3 -88 -3 -3 -82 -3 -82 -82 -3 -82 -3 -3 -87 -3
-88 256 0 255 0 0 -85 0 -85 260 0 260 0 0 260 0 260 -85 0 -85 0 0 255 0 255
-83 0 c-46 0 -87 -3 -90 -7z"/>
<path d="M2050 765 l0 -85 85 0 85 0 0 -85 0 -85 85 0 85 0 0 -255 0 -255 175
0 175 0 0 255 0 255 85 0 85 0 0 85 0 85 80 0 80 0 0 85 0 85 -510 0 -510 0 0
-85z"/>
</g>
</svg>
